<?xml version="1.0" encoding="UTF-8"?>
<svg xmlns="http://www.w3.org/2000/svg" xmlns:xlink="http://www.w3.org/1999/xlink" width="540pt" height="225pt" viewBox="0 0 540 225" version="1.2">
<defs>
<clipPath id="clip1">
  <path d="M 157.5 0 L 382.5 0 L 382.5 225 L 157.5 225 Z M 157.5 0 "/>
</clipPath>
</defs>
<g id="surface1">
<g clip-path="url(#clip1)" clip-rule="nonzero">
<path style=" stroke:none;fill-rule:nonzero;fill:rgb(100%,100%,100%);fill-opacity:1;" d="M 270 225 C 271.839844 225 273.679688 224.953125 275.519531 224.863281 C 277.359375 224.773438 279.195312 224.640625 281.027344 224.457031 C 282.859375 224.277344 284.6875 224.050781 286.507812 223.78125 C 288.328125 223.511719 290.140625 223.199219 291.949219 222.839844 C 293.753906 222.480469 295.550781 222.074219 297.335938 221.628906 C 299.121094 221.179688 300.894531 220.691406 302.65625 220.15625 C 304.417969 219.621094 306.167969 219.042969 307.898438 218.421875 C 309.632812 217.804688 311.351562 217.140625 313.050781 216.4375 C 314.753906 215.730469 316.433594 214.984375 318.101562 214.199219 C 319.765625 213.410156 321.410156 212.585938 323.03125 211.714844 C 324.65625 210.847656 326.257812 209.941406 327.835938 208.996094 C 329.414062 208.046875 330.972656 207.0625 332.5 206.039062 C 334.03125 205.015625 335.539062 203.957031 337.015625 202.859375 C 338.496094 201.765625 339.945312 200.632812 341.371094 199.464844 C 342.792969 198.296875 344.1875 197.09375 345.550781 195.855469 C 346.914062 194.621094 348.246094 193.351562 349.550781 192.050781 C 350.851562 190.746094 352.121094 189.414062 353.355469 188.050781 C 354.59375 186.6875 355.796875 185.292969 356.964844 183.871094 C 358.132812 182.445312 359.265625 180.996094 360.359375 179.515625 C 361.457031 178.039062 362.515625 176.53125 363.539062 175 C 364.5625 173.472656 365.546875 171.914062 366.496094 170.335938 C 367.441406 168.757812 368.347656 167.15625 369.214844 165.53125 C 370.085938 163.910156 370.910156 162.265625 371.699219 160.601562 C 372.484375 158.9375 373.230469 157.253906 373.9375 155.550781 C 374.640625 153.851562 375.304688 152.132812 375.921875 150.398438 C 376.542969 148.667969 377.121094 146.917969 377.65625 145.15625 C 378.191406 143.394531 378.679688 141.621094 379.128906 139.835938 C 379.574219 138.050781 379.980469 136.253906 380.339844 134.449219 C 380.699219 132.640625 381.011719 130.828125 381.28125 129.007812 C 381.550781 127.1875 381.777344 125.359375 381.957031 123.527344 C 382.140625 121.695312 382.273438 119.859375 382.363281 118.019531 C 382.453125 116.179688 382.5 114.339844 382.5 112.5 C 382.5 110.660156 382.453125 108.820312 382.363281 106.980469 C 382.273438 105.140625 382.140625 103.304688 381.957031 101.472656 C 381.777344 99.640625 381.550781 97.8125 381.28125 95.992188 C 381.011719 94.171875 380.699219 92.359375 380.339844 90.550781 C 379.980469 88.746094 379.574219 86.949219 379.128906 85.164062 C 378.679688 83.378906 378.191406 81.605469 377.65625 79.84375 C 377.121094 78.082031 376.542969 76.332031 375.921875 74.601562 C 375.304688 72.867188 374.640625 71.148438 373.9375 69.449219 C 373.230469 67.746094 372.484375 66.066406 371.699219 64.398438 C 370.910156 62.734375 370.085938 61.089844 369.214844 59.46875 C 368.347656 57.84375 367.441406 56.242188 366.496094 54.664062 C 365.546875 53.085938 364.5625 51.527344 363.539062 50 C 362.515625 48.46875 361.457031 46.960938 360.359375 45.484375 C 359.265625 44.003906 358.132812 42.554688 356.964844 41.128906 C 355.796875 39.707031 354.59375 38.3125 353.355469 36.949219 C 352.121094 35.585938 350.851562 34.253906 349.550781 32.949219 C 348.246094 31.648438 346.914062 30.378906 345.550781 29.144531 C 344.1875 27.90625 342.792969 26.703125 341.371094 25.535156 C 339.945312 24.367188 338.496094 23.234375 337.015625 22.140625 C 335.539062 21.042969 334.03125 19.984375 332.5 18.960938 C 330.972656 17.9375 329.414062 16.953125 327.835938 16.003906 C 326.257812 15.058594 324.65625 14.152344 323.03125 13.285156 C 321.410156 12.414062 319.765625 11.589844 318.101562 10.800781 C 316.433594 10.015625 314.753906 9.269531 313.050781 8.5625 C 311.351562 7.859375 309.632812 7.195312 307.898438 6.578125 C 306.167969 5.957031 304.417969 5.378906 302.65625 4.84375 C 300.894531 4.308594 299.121094 3.820312 297.335938 3.371094 C 295.550781 2.925781 293.753906 2.519531 291.949219 2.160156 C 290.140625 1.800781 288.328125 1.488281 286.507812 1.21875 C 284.6875 0.949219 282.859375 0.722656 281.027344 0.542969 C 279.195312 0.359375 277.359375 0.226562 275.519531 0.136719 C 273.679688 0.046875 271.839844 0 270 0 C 268.160156 0 266.320312 0.046875 264.480469 0.136719 C 262.640625 0.226562 260.804688 0.359375 258.972656 0.542969 C 257.140625 0.722656 255.3125 0.949219 253.492188 1.21875 C 251.671875 1.488281 249.859375 1.800781 248.050781 2.160156 C 246.246094 2.519531 244.449219 2.925781 242.664062 3.371094 C 240.878906 3.820312 239.105469 4.308594 237.34375 4.84375 C 235.582031 5.378906 233.832031 5.957031 232.101562 6.578125 C 230.367188 7.195312 228.648438 7.859375 226.949219 8.5625 C 225.246094 9.269531 223.5625 10.015625 221.898438 10.800781 C 220.234375 11.589844 218.589844 12.414062 216.96875 13.285156 C 215.34375 14.152344 213.742188 15.058594 212.164062 16.003906 C 210.585938 16.953125 209.027344 17.9375 207.5 18.960938 C 205.96875 19.984375 204.460938 21.042969 202.984375 22.140625 C 201.503906 23.234375 200.054688 24.367188 198.628906 25.535156 C 197.207031 26.703125 195.8125 27.90625 194.449219 29.144531 C 193.085938 30.378906 191.753906 31.648438 190.449219 32.949219 C 189.148438 34.253906 187.878906 35.585938 186.644531 36.949219 C 185.40625 38.3125 184.203125 39.707031 183.035156 41.128906 C 181.867188 42.554688 180.734375 44.003906 179.640625 45.484375 C 178.542969 46.960938 177.484375 48.46875 176.460938 50 C 175.4375 51.527344 174.453125 53.085938 173.503906 54.664062 C 172.558594 56.242188 171.652344 57.84375 170.785156 59.46875 C 169.914062 61.089844 169.089844 62.734375 168.300781 64.398438 C 167.515625 66.066406 166.769531 67.746094 166.0625 69.449219 C 165.359375 71.148438 164.695312 72.867188 164.078125 74.601562 C 163.457031 76.332031 162.878906 78.082031 162.34375 79.84375 C 161.808594 81.605469 161.320312 83.378906 160.871094 85.164062 C 160.425781 86.949219 160.019531 88.746094 159.660156 90.550781 C 159.300781 92.359375 158.988281 94.171875 158.71875 95.992188 C 158.449219 97.8125 158.222656 99.640625 158.042969 101.472656 C 157.859375 103.304688 157.726562 105.140625 157.636719 106.980469 C 157.546875 108.820312 157.5 110.660156 157.5 112.5 C 157.5 114.339844 157.546875 116.179688 157.636719 118.019531 C 157.726562 119.859375 157.859375 121.695312 158.042969 123.527344 C 158.222656 125.359375 158.449219 127.1875 158.71875 129.007812 C 158.988281 130.828125 159.300781 132.640625 159.660156 134.449219 C 160.019531 136.253906 160.425781 138.050781 160.871094 139.835938 C 161.320312 141.621094 161.808594 143.394531 162.34375 145.15625 C 162.878906 146.917969 163.457031 148.667969 164.078125 150.398438 C 164.695312 152.132812 165.359375 153.851562 166.0625 155.550781 C 166.769531 157.253906 167.515625 158.9375 168.300781 160.601562 C 169.089844 162.265625 169.914062 163.910156 170.785156 165.53125 C 171.652344 167.15625 172.558594 168.757812 173.503906 170.335938 C 174.453125 171.914062 175.4375 173.472656 176.460938 175 C 177.484375 176.53125 178.542969 178.039062 179.640625 179.515625 C 180.734375 180.996094 181.867188 182.445312 183.035156 183.871094 C 184.203125 185.292969 185.40625 186.6875 186.644531 188.050781 C 187.878906 189.414062 189.148438 190.746094 190.449219 192.050781 C 191.753906 193.351562 193.085938 194.621094 194.449219 195.855469 C 195.8125 197.09375 197.207031 198.296875 198.628906 199.464844 C 200.054688 200.632812 201.503906 201.765625 202.984375 202.859375 C 204.460938 203.957031 205.96875 205.015625 207.5 206.039062 C 209.027344 207.0625 210.585938 208.046875 212.164062 208.996094 C 213.742188 209.941406 215.34375 210.847656 216.96875 211.714844 C 218.589844 212.585938 220.234375 213.410156 221.898438 214.199219 C 223.5625 214.984375 225.246094 215.730469 226.949219 216.4375 C 228.648438 217.140625 230.367188 217.804688 232.101562 218.421875 C 233.832031 219.042969 235.582031 219.621094 237.34375 220.15625 C 239.105469 220.691406 240.878906 221.179688 242.664062 221.628906 C 244.449219 222.074219 246.246094 222.480469 248.050781 222.839844 C 249.859375 223.199219 251.671875 223.511719 253.492188 223.78125 C 255.3125 224.050781 257.140625 224.277344 258.972656 224.457031 C 260.804688 224.640625 262.640625 224.773438 264.480469 224.863281 C 266.320312 224.953125 268.160156 225 270 225 Z M 269.800781 32.464844 C 271.113281 32.464844 272.425781 32.527344 273.738281 32.65625 C 275.046875 32.785156 276.347656 32.980469 277.636719 33.238281 C 278.929688 33.492188 280.203125 33.8125 281.460938 34.195312 C 282.722656 34.578125 283.960938 35.019531 285.175781 35.523438 C 286.390625 36.027344 287.578125 36.589844 288.738281 37.207031 C 289.898438 37.828125 291.027344 38.503906 292.121094 39.234375 C 293.214844 39.964844 294.269531 40.75 295.289062 41.585938 C 296.304688 42.417969 297.277344 43.300781 298.210938 44.230469 C 299.140625 45.164062 300.023438 46.136719 300.859375 47.152344 C 301.691406 48.171875 302.476562 49.226562 303.207031 50.320312 C 303.9375 51.414062 304.613281 52.542969 305.234375 53.703125 C 305.855469 54.863281 306.414062 56.050781 306.917969 57.265625 C 307.421875 58.484375 307.867188 59.71875 308.246094 60.980469 C 308.628906 62.238281 308.949219 63.515625 309.207031 64.804688 C 309.460938 66.09375 309.65625 67.394531 309.785156 68.703125 C 309.914062 70.015625 309.976562 71.328125 309.976562 72.644531 C 309.976562 73.957031 309.914062 75.273438 309.785156 76.582031 C 309.65625 77.890625 309.460938 79.191406 309.207031 80.480469 C 308.949219 81.773438 308.628906 83.046875 308.246094 84.304688 C 307.867188 85.566406 307.421875 86.804688 306.917969 88.019531 C 306.414062 89.234375 305.855469 90.421875 305.234375 91.582031 C 304.613281 92.742188 303.9375 93.871094 303.207031 94.964844 C 302.476562 96.058594 301.691406 97.113281 300.859375 98.132812 C 300.023438 99.148438 299.140625 100.121094 298.210938 101.054688 C 297.277344 101.984375 296.304688 102.867188 295.289062 103.703125 C 294.269531 104.535156 293.214844 105.320312 292.121094 106.050781 C 291.027344 106.78125 289.898438 107.457031 288.738281 108.078125 C 287.578125 108.699219 286.390625 109.257812 285.175781 109.761719 C 283.960938 110.265625 282.722656 110.710938 281.460938 111.089844 C 280.203125 111.472656 278.929688 111.792969 277.636719 112.050781 C 276.347656 112.304688 275.046875 112.5 273.738281 112.628906 C 272.425781 112.757812 271.113281 112.820312 269.800781 112.820312 C 268.484375 112.820312 267.171875 112.757812 265.859375 112.628906 C 264.550781 112.5 263.25 112.304688 261.960938 112.050781 C 260.671875 111.792969 259.394531 111.472656 258.136719 111.089844 C 256.875 110.710938 255.640625 110.265625 254.421875 109.761719 C 253.207031 109.257812 252.019531 108.699219 250.859375 108.078125 C 249.699219 107.457031 248.570312 106.78125 247.476562 106.050781 C 246.382812 105.320312 245.328125 104.535156 244.308594 103.703125 C 243.292969 102.867188 242.320312 101.984375 241.386719 101.054688 C 240.457031 100.121094 239.574219 99.148438 238.742188 98.132812 C 237.90625 97.113281 237.121094 96.058594 236.390625 94.964844 C 235.660156 93.871094 234.984375 92.742188 234.363281 91.582031 C 233.746094 90.421875 233.183594 89.234375 232.679688 88.019531 C 232.175781 86.804688 231.734375 85.566406 231.351562 84.304688 C 230.96875 83.046875 230.648438 81.773438 230.390625 80.480469 C 230.136719 79.191406 229.941406 77.890625 229.8125 76.582031 C 229.683594 75.273438 229.621094 73.957031 229.621094 72.644531 C 229.621094 71.328125 229.683594 70.015625 229.8125 68.703125 C 229.941406 67.394531 230.136719 66.09375 230.390625 64.804688 C 230.648438 63.515625 230.96875 62.238281 231.351562 60.980469 C 231.734375 59.71875 232.175781 58.484375 232.679688 57.265625 C 233.183594 56.050781 233.746094 54.863281 234.363281 53.703125 C 234.984375 52.542969 235.660156 51.414062 236.390625 50.320312 C 237.121094 49.226562 237.90625 48.171875 238.742188 47.152344 C 239.574219 46.136719 240.457031 45.164062 241.386719 44.230469 C 242.320312 43.300781 243.292969 42.417969 244.308594 41.585938 C 245.328125 40.75 246.382812 39.964844 247.476562 39.234375 C 248.570312 38.503906 249.699219 37.828125 250.859375 37.207031 C 252.019531 36.589844 253.207031 36.027344 254.421875 35.523438 C 255.640625 35.019531 256.875 34.578125 258.136719 34.195312 C 259.394531 33.8125 260.671875 33.492188 261.960938 33.238281 C 263.25 32.980469 264.550781 32.785156 265.859375 32.65625 C 267.171875 32.527344 268.484375 32.464844 269.800781 32.464844 Z M 217.566406 147.9375 C 219.371094 146.367188 221.242188 144.878906 223.179688 143.476562 C 225.117188 142.070312 227.113281 140.757812 229.167969 139.53125 C 231.222656 138.308594 233.328125 137.175781 235.484375 136.140625 C 237.640625 135.105469 239.839844 134.167969 242.082031 133.328125 C 244.320312 132.488281 246.59375 131.753906 248.902344 131.117188 C 251.207031 130.484375 253.539062 129.953125 255.890625 129.527344 C 258.246094 129.097656 260.613281 128.777344 262.996094 128.566406 C 265.378906 128.351562 267.769531 128.246094 270.160156 128.246094 C 272.554688 128.246094 274.941406 128.351562 277.324219 128.566406 C 279.707031 128.777344 282.074219 129.097656 284.429688 129.527344 C 286.78125 129.953125 289.113281 130.484375 291.421875 131.117188 C 293.726562 131.753906 296 132.488281 298.242188 133.328125 C 300.480469 134.167969 302.679688 135.105469 304.835938 136.140625 C 306.992188 137.175781 309.097656 138.308594 311.152344 139.53125 C 313.207031 140.757812 315.203125 142.070312 317.140625 143.476562 C 319.078125 144.878906 320.949219 146.367188 322.753906 147.9375 C 323.199219 148.324219 323.621094 148.734375 324.019531 149.167969 C 324.421875 149.601562 324.796875 150.050781 325.148438 150.523438 C 325.5 150.996094 325.828125 151.488281 326.128906 151.996094 C 326.425781 152.503906 326.699219 153.023438 326.941406 153.5625 C 327.1875 154.097656 327.402344 154.644531 327.585938 155.203125 C 327.773438 155.761719 327.925781 156.332031 328.050781 156.90625 C 328.175781 157.484375 328.269531 158.0625 328.332031 158.648438 C 328.394531 159.234375 328.425781 159.824219 328.425781 160.414062 C 328.425781 161.003906 328.394531 161.589844 328.332031 162.175781 C 328.269531 162.761719 328.175781 163.34375 328.050781 163.917969 C 327.925781 164.496094 327.773438 165.0625 327.585938 165.621094 C 327.402344 166.179688 327.1875 166.730469 326.941406 167.265625 C 326.699219 167.800781 326.425781 168.324219 326.128906 168.832031 C 325.828125 169.339844 325.5 169.828125 325.148438 170.300781 C 324.796875 170.773438 324.421875 171.226562 324.019531 171.660156 C 323.621094 172.089844 323.199219 172.5 322.753906 172.886719 C 320.949219 174.460938 319.078125 175.945312 317.140625 177.351562 C 315.203125 178.753906 313.207031 180.070312 311.152344 181.292969 C 309.097656 182.519531 306.992188 183.648438 304.835938 184.683594 C 302.679688 185.71875 300.480469 186.65625 298.242188 187.496094 C 296 188.335938 293.726562 189.074219 291.421875 189.707031 C 289.113281 190.34375 286.78125 190.875 284.429688 191.300781 C 282.074219 191.726562 279.707031 192.046875 277.324219 192.261719 C 274.941406 192.476562 272.554688 192.582031 270.160156 192.582031 C 267.769531 192.582031 265.378906 192.476562 262.996094 192.261719 C 260.613281 192.046875 258.246094 191.726562 255.890625 191.300781 C 253.539062 190.875 251.207031 190.34375 248.902344 189.707031 C 246.59375 189.074219 244.320312 188.335938 242.082031 187.496094 C 239.839844 186.65625 237.640625 185.71875 235.484375 184.683594 C 233.328125 183.648438 231.222656 182.519531 229.167969 181.292969 C 227.113281 180.070312 225.117188 178.753906 223.179688 177.351562 C 221.242188 175.945312 219.371094 174.460938 217.566406 172.886719 C 217.121094 172.503906 216.695312 172.097656 216.292969 171.667969 C 215.890625 171.238281 215.511719 170.785156 215.15625 170.316406 C 214.800781 169.847656 214.472656 169.359375 214.167969 168.851562 C 213.863281 168.347656 213.589844 167.828125 213.34375 167.292969 C 213.09375 166.757812 212.875 166.210938 212.6875 165.652344 C 212.5 165.09375 212.339844 164.527344 212.210938 163.953125 C 212.082031 163.378906 211.984375 162.796875 211.917969 162.210938 C 211.851562 161.625 211.816406 161.039062 211.8125 160.449219 C 211.808594 159.859375 211.835938 159.273438 211.894531 158.6875 C 211.953125 158.101562 212.046875 157.519531 212.167969 156.941406 C 212.289062 156.363281 212.4375 155.796875 212.621094 155.234375 C 212.800781 154.675781 213.011719 154.125 213.253906 153.585938 C 213.496094 153.050781 213.761719 152.527344 214.058594 152.015625 C 214.355469 151.507812 214.679688 151.015625 215.027344 150.539062 C 215.375 150.066406 215.75 149.609375 216.148438 149.175781 C 216.546875 148.742188 216.964844 148.328125 217.40625 147.9375 Z M 217.566406 147.9375 "/>
</g>
</g>
</svg>
