<?xml version="1.0" encoding="UTF-8"?>
<svg xmlns="http://www.w3.org/2000/svg" xmlns:xlink="http://www.w3.org/1999/xlink" width="810pt" height="809.999993pt" viewBox="0 0 810 809.999993" version="1.2">
<g id="surface1">
<path style=" stroke:none;fill-rule:nonzero;fill:rgb(100%,100%,100%);fill-opacity:1;" d="M 405 810 C 411.628906 810 418.253906 809.835938 424.871094 809.511719 C 431.492188 809.1875 438.101562 808.699219 444.695312 808.050781 C 451.292969 807.398438 457.871094 806.589844 464.425781 805.617188 C 470.980469 804.644531 477.511719 803.511719 484.011719 802.21875 C 490.511719 800.925781 496.976562 799.472656 503.40625 797.863281 C 509.835938 796.253906 516.222656 794.484375 522.566406 792.5625 C 528.90625 790.636719 535.199219 788.558594 541.441406 786.324219 C 547.679688 784.09375 553.863281 781.707031 559.988281 779.171875 C 566.109375 776.632812 572.167969 773.949219 578.160156 771.117188 C 584.152344 768.28125 590.070312 765.300781 595.914062 762.179688 C 601.761719 759.054688 607.527344 755.789062 613.210938 752.378906 C 618.898438 748.972656 624.496094 745.425781 630.007812 741.746094 C 635.515625 738.0625 640.933594 734.246094 646.257812 730.300781 C 651.582031 726.351562 656.804688 722.273438 661.929688 718.070312 C 667.054688 713.863281 672.070312 709.535156 676.980469 705.085938 C 681.890625 700.632812 686.691406 696.066406 691.378906 691.378906 C 696.066406 686.691406 700.632812 681.890625 705.085938 676.980469 C 709.535156 672.070312 713.863281 667.054688 718.070312 661.929688 C 722.273438 656.804688 726.351562 651.582031 730.300781 646.257812 C 734.246094 640.933594 738.0625 635.515625 741.746094 630.007812 C 745.425781 624.496094 748.972656 618.898438 752.378906 613.210938 C 755.789062 607.527344 759.054688 601.761719 762.179688 595.914062 C 765.300781 590.070312 768.28125 584.152344 771.117188 578.160156 C 773.949219 572.167969 776.632812 566.109375 779.171875 559.988281 C 781.707031 553.863281 784.09375 547.679688 786.324219 541.441406 C 788.558594 535.199219 790.636719 528.90625 792.5625 522.566406 C 794.484375 516.222656 796.253906 509.835938 797.863281 503.40625 C 799.472656 496.976562 800.925781 490.511719 802.21875 484.011719 C 803.511719 477.511719 804.644531 470.980469 805.617188 464.425781 C 806.589844 457.871094 807.398438 451.292969 808.050781 444.695312 C 808.699219 438.101562 809.1875 431.492188 809.511719 424.871094 C 809.835938 418.253906 810 411.628906 810 405 C 810 398.371094 809.835938 391.746094 809.511719 385.128906 C 809.1875 378.507812 808.699219 371.898438 808.050781 365.304688 C 807.398438 358.707031 806.589844 352.128906 805.617188 345.574219 C 804.644531 339.019531 803.511719 332.488281 802.21875 325.988281 C 800.925781 319.488281 799.472656 313.023438 797.863281 306.59375 C 796.253906 300.164062 794.484375 293.777344 792.5625 287.433594 C 790.636719 281.09375 788.558594 274.800781 786.324219 268.558594 C 784.09375 262.320312 781.707031 256.136719 779.171875 250.011719 C 776.632812 243.890625 773.949219 237.832031 771.117188 231.839844 C 768.28125 225.847656 765.300781 219.929688 762.179688 214.085938 C 759.054688 208.238281 755.789062 202.472656 752.378906 196.789062 C 748.972656 191.101562 745.425781 185.503906 741.746094 179.992188 C 738.0625 174.484375 734.246094 169.066406 730.300781 163.742188 C 726.351562 158.417969 722.273438 153.195312 718.070312 148.070312 C 713.863281 142.945312 709.535156 137.929688 705.085938 133.019531 C 700.632812 128.109375 696.066406 123.308594 691.378906 118.621094 C 686.691406 113.933594 681.890625 109.367188 676.980469 104.914062 C 672.070312 100.464844 667.054688 96.136719 661.929688 91.929688 C 656.804688 87.726562 651.582031 83.648438 646.257812 79.699219 C 640.933594 75.753906 635.515625 71.9375 630.007812 68.253906 C 624.496094 64.574219 618.898438 61.027344 613.210938 57.621094 C 607.527344 54.210938 601.761719 50.945312 595.914062 47.820312 C 590.070312 44.699219 584.152344 41.71875 578.160156 38.882812 C 572.167969 36.050781 566.109375 33.367188 559.988281 30.828125 C 553.863281 28.292969 547.679688 25.90625 541.441406 23.675781 C 535.199219 21.441406 528.90625 19.363281 522.566406 17.4375 C 516.222656 15.515625 509.835938 13.746094 503.40625 12.136719 C 496.976562 10.527344 490.511719 9.074219 484.011719 7.78125 C 477.511719 6.488281 470.980469 5.355469 464.425781 4.382812 C 457.871094 3.410156 451.292969 2.601562 444.695312 1.949219 C 438.101562 1.300781 431.492188 0.8125 424.871094 0.488281 C 418.253906 0.164062 411.628906 0 405 0 C 398.371094 0 391.746094 0.164062 385.128906 0.488281 C 378.507812 0.8125 371.898438 1.300781 365.304688 1.949219 C 358.707031 2.601562 352.128906 3.410156 345.574219 4.382812 C 339.019531 5.355469 332.488281 6.488281 325.988281 7.78125 C 319.488281 9.074219 313.023438 10.527344 306.59375 12.136719 C 300.164062 13.746094 293.777344 15.515625 287.433594 17.4375 C 281.09375 19.363281 274.800781 21.441406 268.558594 23.675781 C 262.320312 25.90625 256.136719 28.292969 250.011719 30.828125 C 243.890625 33.367188 237.832031 36.050781 231.839844 38.882812 C 225.847656 41.71875 219.929688 44.699219 214.085938 47.820312 C 208.238281 50.945312 202.472656 54.210938 196.789062 57.621094 C 191.101562 61.027344 185.503906 64.574219 179.992188 68.253906 C 174.484375 71.9375 169.066406 75.753906 163.742188 79.699219 C 158.417969 83.648438 153.195312 87.726562 148.070312 91.929688 C 142.945312 96.136719 137.929688 100.464844 133.019531 104.914062 C 128.109375 109.367188 123.308594 113.933594 118.621094 118.621094 C 113.933594 123.308594 109.367188 128.109375 104.914062 133.019531 C 100.464844 137.929688 96.136719 142.945312 91.929688 148.070312 C 87.726562 153.195312 83.648438 158.417969 79.699219 163.742188 C 75.753906 169.066406 71.9375 174.484375 68.253906 179.992188 C 64.574219 185.503906 61.027344 191.101562 57.621094 196.789062 C 54.210938 202.472656 50.945312 208.238281 47.820312 214.085938 C 44.699219 219.929688 41.71875 225.847656 38.882812 231.839844 C 36.050781 237.832031 33.367188 243.890625 30.828125 250.011719 C 28.292969 256.136719 25.90625 262.320312 23.675781 268.558594 C 21.441406 274.800781 19.363281 281.09375 17.4375 287.433594 C 15.515625 293.777344 13.746094 300.164062 12.136719 306.59375 C 10.527344 313.023438 9.074219 319.488281 7.78125 325.988281 C 6.488281 332.488281 5.355469 339.019531 4.382812 345.574219 C 3.410156 352.128906 2.601562 358.707031 1.949219 365.304688 C 1.300781 371.898438 0.8125 378.507812 0.488281 385.128906 C 0.164062 391.746094 0 398.371094 0 405 C 0 411.628906 0.164062 418.253906 0.488281 424.871094 C 0.8125 431.492188 1.300781 438.101562 1.949219 444.695312 C 2.601562 451.292969 3.410156 457.871094 4.382812 464.425781 C 5.355469 470.980469 6.488281 477.511719 7.78125 484.011719 C 9.074219 490.511719 10.527344 496.976562 12.136719 503.40625 C 13.746094 509.835938 15.515625 516.222656 17.4375 522.566406 C 19.363281 528.90625 21.441406 535.199219 23.675781 541.441406 C 25.90625 547.679688 28.292969 553.863281 30.828125 559.988281 C 33.367188 566.109375 36.050781 572.167969 38.882812 578.160156 C 41.71875 584.152344 44.699219 590.070312 47.820312 595.914062 C 50.945312 601.761719 54.210938 607.527344 57.621094 613.210938 C 61.027344 618.898438 64.574219 624.496094 68.253906 630.007812 C 71.9375 635.515625 75.753906 640.933594 79.699219 646.257812 C 83.648438 651.582031 87.726562 656.804688 91.929688 661.929688 C 96.136719 667.054688 100.464844 672.070312 104.914062 676.980469 C 109.367188 681.890625 113.933594 686.691406 118.621094 691.378906 C 123.308594 696.066406 128.109375 700.632812 133.019531 705.085938 C 137.929688 709.535156 142.945312 713.863281 148.070312 718.070312 C 153.195312 722.273438 158.417969 726.351562 163.742188 730.300781 C 169.066406 734.246094 174.484375 738.0625 179.992188 741.746094 C 185.503906 745.425781 191.101562 748.972656 196.789062 752.378906 C 202.472656 755.789062 208.238281 759.054688 214.085938 762.179688 C 219.929688 765.300781 225.847656 768.28125 231.839844 771.117188 C 237.832031 773.949219 243.890625 776.632812 250.011719 779.171875 C 256.136719 781.707031 262.320312 784.09375 268.558594 786.324219 C 274.800781 788.558594 281.09375 790.636719 287.433594 792.5625 C 293.777344 794.484375 300.164062 796.253906 306.59375 797.863281 C 313.023438 799.472656 319.488281 800.925781 325.988281 802.21875 C 332.488281 803.511719 339.019531 804.644531 345.574219 805.617188 C 352.128906 806.589844 358.707031 807.398438 365.304688 808.050781 C 371.898438 808.699219 378.507812 809.1875 385.128906 809.511719 C 391.746094 809.835938 398.371094 810 405 810 Z M 404.277344 116.871094 C 406.644531 116.871094 409.007812 116.929688 411.375 117.046875 C 413.738281 117.160156 416.097656 117.335938 418.453125 117.566406 C 420.808594 117.800781 423.160156 118.089844 425.5 118.4375 C 427.84375 118.785156 430.171875 119.1875 432.496094 119.652344 C 434.816406 120.113281 437.125 120.632812 439.421875 121.207031 C 441.71875 121.78125 444 122.414062 446.265625 123.101562 C 448.53125 123.785156 450.777344 124.527344 453.003906 125.328125 C 455.234375 126.125 457.441406 126.976562 459.628906 127.882812 C 461.816406 128.789062 463.980469 129.746094 466.121094 130.757812 C 468.257812 131.769531 470.375 132.835938 472.460938 133.949219 C 474.546875 135.066406 476.609375 136.234375 478.636719 137.449219 C 480.667969 138.667969 482.667969 139.933594 484.636719 141.25 C 486.605469 142.5625 488.539062 143.925781 490.441406 145.335938 C 492.339844 146.746094 494.207031 148.203125 496.039062 149.703125 C 497.867188 151.207031 499.660156 152.75 501.414062 154.339844 C 503.167969 155.929688 504.878906 157.5625 506.554688 159.238281 C 508.230469 160.910156 509.859375 162.625 511.449219 164.378906 C 513.039062 166.132812 514.585938 167.925781 516.085938 169.753906 C 517.589844 171.582031 519.042969 173.449219 520.453125 175.351562 C 521.863281 177.253906 523.226562 179.1875 524.542969 181.15625 C 525.859375 183.125 527.125 185.121094 528.339844 187.152344 C 529.558594 189.183594 530.722656 191.242188 531.839844 193.332031 C 532.957031 195.417969 534.019531 197.53125 535.03125 199.671875 C 536.042969 201.8125 537.003906 203.976562 537.910156 206.160156 C 538.816406 208.347656 539.667969 210.558594 540.464844 212.785156 C 541.261719 215.015625 542.003906 217.261719 542.691406 219.527344 C 543.378906 221.792969 544.007812 224.074219 544.585938 226.367188 C 545.160156 228.664062 545.679688 230.972656 546.140625 233.296875 C 546.601562 235.617188 547.007812 237.949219 547.355469 240.289062 C 547.703125 242.632812 547.992188 244.980469 548.222656 247.335938 C 548.457031 249.691406 548.628906 252.050781 548.746094 254.417969 C 548.863281 256.78125 548.917969 259.148438 548.917969 261.515625 C 548.917969 263.882812 548.863281 266.246094 548.746094 268.613281 C 548.628906 270.976562 548.457031 273.335938 548.222656 275.691406 C 547.992188 278.046875 547.703125 280.394531 547.355469 282.738281 C 547.007812 285.078125 546.601562 287.410156 546.140625 289.734375 C 545.679688 292.054688 545.160156 294.363281 544.585938 296.660156 C 544.007812 298.957031 543.378906 301.238281 542.691406 303.5 C 542.003906 305.765625 541.261719 308.015625 540.464844 310.242188 C 539.667969 312.472656 538.816406 314.679688 537.910156 316.867188 C 537.003906 319.054688 536.042969 321.21875 535.03125 323.355469 C 534.019531 325.496094 532.957031 327.609375 531.839844 329.699219 C 530.722656 331.785156 529.558594 333.84375 528.339844 335.875 C 527.125 337.90625 525.859375 339.90625 524.542969 341.875 C 523.226562 343.839844 521.863281 345.777344 520.453125 347.679688 C 519.042969 349.578125 517.589844 351.445312 516.085938 353.273438 C 514.585938 355.105469 513.039062 356.898438 511.449219 358.652344 C 509.859375 360.40625 508.230469 362.117188 506.554688 363.792969 C 504.878906 365.464844 503.167969 367.097656 501.414062 368.6875 C 499.660156 370.277344 497.867188 371.824219 496.039062 373.324219 C 494.207031 374.828125 492.339844 376.28125 490.441406 377.691406 C 488.539062 379.101562 486.605469 380.464844 484.636719 381.78125 C 482.667969 383.09375 480.667969 384.363281 478.636719 385.578125 C 476.609375 386.796875 474.546875 387.960938 472.460938 389.078125 C 470.375 390.195312 468.257812 391.257812 466.121094 392.269531 C 463.980469 393.28125 461.816406 394.242188 459.628906 395.148438 C 457.441406 396.050781 455.234375 396.90625 453.003906 397.703125 C 450.777344 398.5 448.53125 399.242188 446.265625 399.929688 C 444 400.617188 441.71875 401.246094 439.421875 401.824219 C 437.125 402.398438 434.816406 402.917969 432.496094 403.378906 C 430.171875 403.839844 427.84375 404.246094 425.5 404.589844 C 423.160156 404.9375 420.808594 405.230469 418.453125 405.460938 C 416.097656 405.691406 413.738281 405.867188 411.375 405.984375 C 409.007812 406.097656 406.644531 406.15625 404.277344 406.15625 C 401.910156 406.15625 399.542969 406.097656 397.179688 405.984375 C 394.816406 405.867188 392.457031 405.691406 390.097656 405.460938 C 387.742188 405.230469 385.394531 404.9375 383.054688 404.589844 C 380.710938 404.246094 378.378906 403.839844 376.058594 403.378906 C 373.738281 402.917969 371.425781 402.398438 369.132812 401.824219 C 366.835938 401.246094 364.554688 400.617188 362.289062 399.929688 C 360.023438 399.242188 357.777344 398.5 355.546875 397.703125 C 353.320312 396.90625 351.109375 396.050781 348.925781 395.148438 C 346.738281 394.242188 344.574219 393.28125 342.433594 392.269531 C 340.292969 391.257812 338.179688 390.195312 336.09375 389.078125 C 334.003906 387.960938 331.945312 386.796875 329.914062 385.578125 C 327.886719 384.363281 325.886719 383.09375 323.917969 381.78125 C 321.949219 380.464844 320.015625 379.101562 318.113281 377.691406 C 316.210938 376.28125 314.347656 374.828125 312.515625 373.324219 C 310.6875 371.824219 308.894531 370.277344 307.140625 368.6875 C 305.386719 367.097656 303.671875 365.464844 302 363.792969 C 300.324219 362.117188 298.691406 360.40625 297.101562 358.652344 C 295.515625 356.898438 293.96875 355.105469 292.464844 353.273438 C 290.964844 351.445312 289.507812 349.578125 288.097656 347.679688 C 286.6875 345.777344 285.324219 343.839844 284.011719 341.875 C 282.695312 339.90625 281.429688 337.90625 280.210938 335.875 C 278.996094 333.84375 277.828125 331.785156 276.714844 329.699219 C 275.597656 327.609375 274.535156 325.496094 273.519531 323.355469 C 272.507812 321.21875 271.550781 319.054688 270.644531 316.867188 C 269.738281 314.679688 268.886719 312.472656 268.089844 310.242188 C 267.292969 308.015625 266.550781 305.765625 265.863281 303.5 C 265.175781 301.238281 264.542969 298.957031 263.96875 296.660156 C 263.394531 294.363281 262.875 292.054688 262.414062 289.734375 C 261.953125 287.410156 261.546875 285.078125 261.199219 282.738281 C 260.851562 280.394531 260.5625 278.046875 260.332031 275.691406 C 260.097656 273.335938 259.925781 270.976562 259.808594 268.613281 C 259.691406 266.246094 259.632812 263.882812 259.632812 261.515625 C 259.632812 259.148438 259.691406 256.78125 259.808594 254.417969 C 259.925781 252.050781 260.097656 249.691406 260.332031 247.335938 C 260.5625 244.980469 260.851562 242.632812 261.199219 240.289062 C 261.546875 237.949219 261.953125 235.617188 262.414062 233.296875 C 262.875 230.972656 263.394531 228.664062 263.96875 226.367188 C 264.542969 224.074219 265.175781 221.792969 265.863281 219.527344 C 266.550781 217.261719 267.292969 215.015625 268.089844 212.785156 C 268.886719 210.558594 269.738281 208.347656 270.644531 206.160156 C 271.550781 203.976562 272.507812 201.8125 273.519531 199.671875 C 274.535156 197.53125 275.597656 195.417969 276.714844 193.332031 C 277.828125 191.242188 278.996094 189.183594 280.210938 187.152344 C 281.429688 185.121094 282.695312 183.125 284.011719 181.15625 C 285.324219 179.1875 286.6875 177.253906 288.097656 175.351562 C 289.507812 173.449219 290.964844 171.582031 292.464844 169.753906 C 293.96875 167.925781 295.515625 166.132812 297.105469 164.378906 C 298.691406 162.625 300.324219 160.910156 302 159.238281 C 303.671875 157.5625 305.386719 155.929688 307.140625 154.339844 C 308.894531 152.75 310.6875 151.207031 312.515625 149.703125 C 314.347656 148.203125 316.210938 146.746094 318.113281 145.335938 C 320.015625 143.925781 321.949219 142.5625 323.917969 141.25 C 325.886719 139.933594 327.886719 138.667969 329.914062 137.449219 C 331.945312 136.234375 334.003906 135.066406 336.09375 133.949219 C 338.179688 132.835938 340.292969 131.769531 342.433594 130.757812 C 344.574219 129.746094 346.738281 128.789062 348.925781 127.882812 C 351.113281 126.976562 353.320312 126.125 355.546875 125.328125 C 357.777344 124.527344 360.023438 123.785156 362.289062 123.101562 C 364.554688 122.414062 366.835938 121.78125 369.132812 121.207031 C 371.425781 120.632812 373.738281 120.113281 376.058594 119.652344 C 378.378906 119.1875 380.710938 118.785156 383.054688 118.4375 C 385.394531 118.089844 387.742188 117.800781 390.097656 117.566406 C 392.457031 117.335938 394.816406 117.160156 397.179688 117.046875 C 399.542969 116.929688 401.910156 116.871094 404.277344 116.871094 Z M 216.242188 532.574219 C 219.488281 529.75 222.792969 526.996094 226.164062 524.316406 C 229.53125 521.636719 232.960938 519.035156 236.445312 516.511719 C 239.929688 513.984375 243.46875 511.539062 247.066406 509.171875 C 250.660156 506.804688 254.308594 504.519531 258.003906 502.316406 C 261.703125 500.113281 265.445312 497.992188 269.238281 495.957031 C 273.03125 493.921875 276.867188 491.972656 280.746094 490.109375 C 284.625 488.246094 288.546875 486.46875 292.503906 484.78125 C 296.464844 483.09375 300.460938 481.492188 304.492188 479.984375 C 308.523438 478.476562 312.585938 477.054688 316.679688 475.730469 C 320.773438 474.402344 324.894531 473.167969 329.046875 472.023438 C 333.195312 470.882812 337.367188 469.832031 341.566406 468.875 C 345.761719 467.921875 349.976562 467.058594 354.210938 466.292969 C 358.449219 465.523438 362.699219 464.851562 366.964844 464.277344 C 371.230469 463.699219 375.503906 463.21875 379.792969 462.835938 C 384.078125 462.449219 388.371094 462.160156 392.671875 461.96875 C 396.972656 461.773438 401.273438 461.679688 405.578125 461.679688 C 409.882812 461.679688 414.183594 461.773438 418.484375 461.96875 C 422.785156 462.160156 427.078125 462.449219 431.363281 462.835938 C 435.652344 463.21875 439.929688 463.699219 444.195312 464.277344 C 448.457031 464.851562 452.710938 465.523438 456.945312 466.292969 C 461.179688 467.058594 465.394531 467.921875 469.59375 468.875 C 473.789062 469.832031 477.960938 470.882812 482.113281 472.023438 C 486.261719 473.167969 490.382812 474.402344 494.476562 475.730469 C 498.574219 477.054688 502.636719 478.476562 506.667969 479.984375 C 510.695312 481.492188 514.691406 483.09375 518.652344 484.78125 C 522.609375 486.46875 526.53125 488.246094 530.410156 490.109375 C 534.289062 491.972656 538.125 493.921875 541.917969 495.957031 C 545.710938 497.992188 549.457031 500.113281 553.152344 502.316406 C 556.851562 504.519531 560.496094 506.804688 564.089844 509.171875 C 567.6875 511.539062 571.226562 513.984375 574.710938 516.511719 C 578.199219 519.035156 581.625 521.636719 584.996094 524.316406 C 588.363281 526.996094 591.671875 529.75 594.917969 532.574219 C 595.714844 533.273438 596.496094 533.988281 597.253906 534.726562 C 598.015625 535.464844 598.757812 536.222656 599.476562 537 C 600.195312 537.78125 600.894531 538.574219 601.574219 539.390625 C 602.25 540.207031 602.90625 541.039062 603.539062 541.890625 C 604.171875 542.738281 604.78125 543.605469 605.367188 544.488281 C 605.957031 545.371094 606.519531 546.269531 607.058594 547.179688 C 607.597656 548.09375 608.113281 549.019531 608.601562 549.960938 C 609.089844 550.902344 609.554688 551.851562 609.992188 552.816406 C 610.433594 553.78125 610.84375 554.757812 611.230469 555.746094 C 611.617188 556.734375 611.980469 557.730469 612.3125 558.734375 C 612.644531 559.742188 612.953125 560.753906 613.230469 561.777344 C 613.511719 562.800781 613.761719 563.832031 613.988281 564.867188 C 614.210938 565.902344 614.410156 566.941406 614.578125 567.988281 C 614.746094 569.035156 614.886719 570.085938 615 571.140625 C 615.113281 572.195312 615.199219 573.25 615.253906 574.308594 C 615.3125 575.367188 615.339844 576.425781 615.339844 577.488281 C 615.339844 578.546875 615.3125 579.605469 615.253906 580.664062 C 615.199219 581.722656 615.113281 582.777344 615 583.832031 C 614.886719 584.886719 614.746094 585.9375 614.578125 586.984375 C 614.410156 588.03125 614.210938 589.070312 613.988281 590.105469 C 613.761719 591.144531 613.511719 592.171875 613.230469 593.195312 C 612.953125 594.21875 612.644531 595.230469 612.3125 596.238281 C 611.980469 597.242188 611.617188 598.242188 611.230469 599.226562 C 610.84375 600.214844 610.433594 601.191406 609.992188 602.15625 C 609.554688 603.121094 609.089844 604.074219 608.601562 605.011719 C 608.113281 605.953125 607.597656 606.878906 607.058594 607.792969 C 606.519531 608.703125 605.957031 609.601562 605.367188 610.484375 C 604.78125 611.367188 604.171875 612.234375 603.539062 613.085938 C 602.90625 613.933594 602.25 614.765625 601.574219 615.582031 C 600.894531 616.398438 600.195312 617.195312 599.476562 617.972656 C 598.757812 618.75 598.015625 619.507812 597.253906 620.246094 C 596.496094 620.984375 595.714844 621.703125 594.917969 622.398438 C 591.671875 625.226562 588.363281 627.976562 584.996094 630.65625 C 581.625 633.335938 578.199219 635.9375 574.710938 638.464844 C 571.226562 640.988281 567.6875 643.433594 564.089844 645.800781 C 560.496094 648.167969 556.851562 650.453125 553.152344 652.65625 C 549.457031 654.859375 545.710938 656.980469 541.917969 659.015625 C 538.125 661.050781 534.289062 663 530.410156 664.863281 C 526.53125 666.726562 522.609375 668.503906 518.652344 670.191406 C 514.691406 671.882812 510.695312 673.480469 506.667969 674.988281 C 502.636719 676.5 498.574219 677.917969 494.476562 679.246094 C 490.382812 680.570312 486.261719 681.804688 482.113281 682.949219 C 477.960938 684.09375 473.789062 685.140625 469.59375 686.097656 C 465.394531 687.054688 461.179688 687.914062 456.945312 688.679688 C 452.710938 689.449219 448.457031 690.121094 444.195312 690.695312 C 439.929688 691.273438 435.652344 691.753906 431.363281 692.140625 C 427.078125 692.523438 422.785156 692.8125 418.484375 693.003906 C 414.183594 693.199219 409.882812 693.292969 405.578125 693.292969 C 401.273438 693.292969 396.972656 693.199219 392.671875 693.003906 C 388.371094 692.8125 384.078125 692.523438 379.792969 692.140625 C 375.503906 691.753906 371.230469 691.273438 366.964844 690.695312 C 362.699219 690.121094 358.449219 689.449219 354.210938 688.679688 C 349.976562 687.914062 345.761719 687.054688 341.566406 686.097656 C 337.367188 685.140625 333.195312 684.09375 329.046875 682.949219 C 324.894531 681.808594 320.773438 680.570312 316.679688 679.246094 C 312.585938 677.917969 308.523438 676.5 304.492188 674.988281 C 300.460938 673.480469 296.464844 671.882812 292.503906 670.191406 C 288.546875 668.503906 284.625 666.726562 280.746094 664.863281 C 276.867188 663 273.03125 661.050781 269.238281 659.015625 C 265.445312 656.980469 261.703125 654.859375 258.003906 652.65625 C 254.308594 650.453125 250.660156 648.167969 247.066406 645.800781 C 243.46875 643.433594 239.929688 640.988281 236.445312 638.464844 C 232.960938 635.9375 229.53125 633.335938 226.164062 630.65625 C 222.792969 627.976562 219.488281 625.226562 216.242188 622.398438 C 215.4375 621.707031 214.652344 620.996094 213.886719 620.261719 C 213.121094 619.527344 212.378906 618.773438 211.652344 618 C 210.925781 617.226562 210.222656 616.4375 209.539062 615.625 C 208.855469 614.8125 208.195312 613.984375 207.558594 613.140625 C 206.917969 612.292969 206.304688 611.429688 205.710938 610.550781 C 205.117188 609.671875 204.550781 608.78125 204.003906 607.871094 C 203.460938 606.960938 202.9375 606.039062 202.445312 605.101562 C 201.949219 604.164062 201.476562 603.214844 201.03125 602.253906 C 200.585938 601.289062 200.167969 600.316406 199.777344 599.332031 C 199.382812 598.347656 199.015625 597.355469 198.675781 596.351562 C 198.335938 595.347656 198.023438 594.332031 197.738281 593.3125 C 197.449219 592.292969 197.191406 591.265625 196.960938 590.230469 C 196.730469 589.195312 196.527344 588.15625 196.351562 587.109375 C 196.175781 586.066406 196.027344 585.015625 195.90625 583.960938 C 195.789062 582.910156 195.695312 581.851562 195.632812 580.796875 C 195.570312 579.738281 195.535156 578.679688 195.527344 577.617188 C 195.519531 576.558594 195.542969 575.5 195.59375 574.441406 C 195.640625 573.382812 195.71875 572.324219 195.824219 571.269531 C 195.933594 570.214844 196.066406 569.164062 196.226562 568.117188 C 196.390625 567.070312 196.582031 566.027344 196.796875 564.988281 C 197.015625 563.953125 197.261719 562.921875 197.535156 561.894531 C 197.808594 560.871094 198.105469 559.855469 198.433594 558.847656 C 198.761719 557.839844 199.113281 556.839844 199.496094 555.851562 C 199.875 554.863281 200.28125 553.882812 200.714844 552.914062 C 201.148438 551.945312 201.605469 550.992188 202.089844 550.046875 C 202.574219 549.105469 203.082031 548.175781 203.613281 547.257812 C 204.148438 546.34375 204.703125 545.441406 205.285156 544.554688 C 205.867188 543.667969 206.472656 542.796875 207.097656 541.945312 C 207.726562 541.089844 208.378906 540.253906 209.050781 539.433594 C 209.722656 538.613281 210.414062 537.8125 211.128906 537.03125 C 211.847656 536.25 212.582031 535.484375 213.335938 534.742188 C 214.09375 534 214.867188 533.277344 215.664062 532.574219 Z M 216.242188 532.574219 "/>
</g>
</svg>
