<?xml version="1.0" encoding="UTF-8"?>
<svg xmlns="http://www.w3.org/2000/svg" xmlns:xlink="http://www.w3.org/1999/xlink" width="540pt" height="225pt" viewBox="0 0 540 225" version="1.2">
<g id="surface1">
<path style=" stroke:none;fill-rule:nonzero;fill:rgb(100%,100%,100%);fill-opacity:1;" d="M 123.972656 60.003906 C 138.171875 71.140625 151.339844 75.472656 162.617188 75.472656 C 162.644531 75.472656 162.671875 75.472656 162.699219 75.472656 C 169.574219 75.472656 175.542969 73.898438 180.511719 71.710938 L 173.660156 118.21875 L 150.613281 208.628906 C 148.96875 215.097656 152.875 221.675781 159.339844 223.320312 C 165.804688 224.972656 172.382812 221.066406 174.03125 214.601562 L 195.734375 129.453125 L 201.601562 130.316406 L 201.601562 211.59375 C 201.601562 218.265625 207.007812 223.675781 213.683594 223.675781 C 220.355469 223.675781 225.765625 218.265625 225.765625 211.59375 L 225.765625 126.984375 C 225.824219 126.746094 225.875 126.507812 225.910156 126.261719 L 234.027344 71.152344 C 234.6875 70.699219 235.289062 70.140625 235.792969 69.464844 C 235.953125 69.253906 237.144531 67.753906 239.199219 65.757812 C 238.046875 64.84375 236.714844 63.820312 235.261719 62.753906 C 232.667969 60.855469 229.691406 58.839844 226.679688 57.136719 C 226.011719 56.757812 225.34375 56.394531 224.675781 56.050781 C 225.445312 56.308594 226.195312 56.585938 226.933594 56.867188 C 229.753906 57.960938 232.324219 59.222656 234.585938 60.511719 C 234.902344 60.695312 235.207031 60.875 235.511719 61.058594 C 237.492188 62.234375 239.203125 63.40625 240.601562 64.449219 C 241.835938 65.371094 242.828125 66.1875 243.550781 66.8125 C 243.554688 66.816406 243.5625 66.820312 243.566406 66.824219 L 243.566406 212.0625 C 243.566406 218.734375 248.976562 224.144531 255.648438 224.144531 C 262.324219 224.144531 267.734375 218.734375 267.734375 212.0625 L 267.734375 134.625 L 272.265625 134.625 L 272.265625 212.058594 C 272.265625 218.734375 277.675781 224.144531 284.347656 224.144531 C 291.023438 224.144531 296.433594 218.734375 296.433594 212.058594 L 296.433594 66.824219 C 296.4375 66.820312 296.441406 66.8125 296.445312 66.808594 C 297.167969 66.183594 298.160156 65.367188 299.398438 64.449219 C 300.796875 63.40625 302.503906 62.234375 304.484375 61.054688 C 304.789062 60.875 305.097656 60.695312 305.414062 60.511719 C 307.675781 59.222656 310.242188 57.960938 313.066406 56.867188 C 313.800781 56.585938 314.550781 56.3125 315.320312 56.050781 C 314.652344 56.394531 313.984375 56.757812 313.316406 57.136719 C 310.304688 58.839844 307.328125 60.855469 304.734375 62.753906 C 303.28125 63.820312 301.953125 64.84375 300.800781 65.757812 C 302.855469 67.753906 304.042969 69.253906 304.203125 69.464844 C 304.707031 70.140625 305.3125 70.699219 305.972656 71.152344 L 314.089844 126.261719 C 314.125 126.507812 314.175781 126.746094 314.234375 126.984375 L 314.234375 211.59375 C 314.234375 218.265625 319.644531 223.675781 326.316406 223.675781 C 332.988281 223.675781 338.398438 218.265625 338.398438 211.59375 L 338.398438 130.316406 L 344.261719 129.453125 L 365.964844 214.601562 C 367.617188 221.066406 374.195312 224.972656 380.660156 223.320312 C 387.125 221.675781 391.03125 215.097656 389.382812 208.628906 L 366.335938 118.21875 L 359.488281 71.714844 C 364.457031 73.898438 370.425781 75.472656 377.296875 75.46875 C 377.324219 75.46875 377.351562 75.46875 377.382812 75.46875 C 388.660156 75.46875 401.824219 71.140625 416.027344 60.003906 C 419.285156 57.457031 419.863281 52.75 417.316406 49.492188 C 414.769531 46.234375 410.066406 45.65625 406.808594 48.203125 C 394.472656 57.804688 384.78125 60.472656 377.296875 60.496094 C 376.832031 60.496094 376.378906 60.484375 375.925781 60.464844 C 375.664062 61.667969 375.160156 62.820312 374.425781 63.855469 C 372.671875 66.335938 369.8125 67.816406 366.773438 67.816406 C 364.835938 67.816406 362.96875 67.222656 361.378906 66.101562 C 360.515625 65.492188 359.488281 64.773438 358.347656 63.96875 C 355.574219 62.023438 352.117188 59.578125 348.53125 56.949219 C 351.582031 58.144531 354.734375 59.679688 358.003906 61.660156 C 359.46875 62.542969 360.953125 63.511719 362.460938 64.570312 C 365.839844 66.960938 370.511719 66.152344 372.894531 62.777344 C 373.4375 62.007812 373.808594 61.171875 374.03125 60.308594 C 374.777344 57.390625 373.710938 54.183594 371.101562 52.339844 C 363.046875 46.628906 355.070312 42.9375 347.441406 40.816406 C 346.761719 42.679688 345.863281 44.425781 344.78125 46.019531 C 344.644531 46.214844 344.511719 46.414062 344.371094 46.605469 C 343.234375 48.175781 341.917969 49.589844 340.449219 50.828125 C 340.308594 50.949219 340.175781 51.074219 340.03125 51.191406 C 338.789062 52.1875 337.441406 53.050781 336.015625 53.78125 C 332.726562 55.472656 329.015625 56.429688 325.097656 56.429688 C 323.28125 56.429688 321.453125 56.21875 319.667969 55.800781 C 319.035156 55.65625 318.421875 55.476562 317.8125 55.285156 C 317.628906 55.226562 317.449219 55.171875 317.269531 55.109375 C 314.867188 54.28125 312.640625 53.085938 310.652344 51.574219 C 308.363281 49.835938 306.382812 47.683594 304.820312 45.171875 C 304.648438 44.898438 304.488281 44.621094 304.332031 44.339844 C 304.324219 44.328125 304.316406 44.3125 304.308594 44.300781 C 302.832031 44.960938 301.429688 45.648438 300.105469 46.347656 C 296.476562 44.109375 292.21875 42.019531 287.402344 40.484375 C 287.195312 40.707031 286.984375 40.921875 286.765625 41.136719 C 282.433594 45.425781 276.503906 48.003906 270.023438 48.003906 C 268.203125 48.003906 266.378906 47.792969 264.59375 47.375 C 260.238281 46.363281 256.34375 44.199219 253.246094 41.128906 C 253.03125 40.917969 252.816406 40.703125 252.609375 40.480469 C 247.785156 42.015625 243.523438 44.109375 239.890625 46.347656 C 238.566406 45.648438 237.164062 44.960938 235.6875 44.300781 C 235.683594 44.316406 235.671875 44.328125 235.664062 44.34375 C 235.507812 44.621094 235.347656 44.898438 235.179688 45.171875 C 233.613281 47.683594 231.636719 49.835938 229.347656 51.574219 C 227.355469 53.085938 225.132812 54.28125 222.730469 55.109375 C 222.550781 55.171875 222.367188 55.226562 222.1875 55.285156 C 221.578125 55.480469 220.960938 55.65625 220.332031 55.800781 C 218.546875 56.21875 216.71875 56.429688 214.902344 56.429688 C 210.984375 56.429688 207.269531 55.472656 203.980469 53.78125 C 202.558594 53.050781 201.207031 52.1875 199.964844 51.1875 C 199.824219 51.074219 199.6875 50.949219 199.550781 50.828125 C 198.082031 49.589844 196.761719 48.175781 195.625 46.601562 C 195.484375 46.410156 195.351562 46.214844 195.21875 46.019531 C 194.132812 44.421875 193.238281 42.679688 192.554688 40.8125 C 184.929688 42.9375 176.953125 46.628906 168.894531 52.339844 C 166.285156 54.183594 165.222656 57.390625 165.96875 60.308594 C 166.1875 61.167969 166.558594 62.007812 167.101562 62.773438 C 169.488281 66.152344 174.160156 66.957031 177.535156 64.570312 C 179.042969 63.507812 180.53125 62.539062 181.992188 61.65625 C 185.261719 59.679688 188.417969 58.140625 191.464844 56.949219 C 187.882812 59.574219 184.421875 62.023438 181.652344 63.96875 C 180.511719 64.769531 179.484375 65.488281 178.617188 66.097656 C 177.03125 67.222656 175.164062 67.8125 173.222656 67.8125 C 170.183594 67.8125 167.324219 66.335938 165.570312 63.855469 C 164.835938 62.820312 164.335938 61.667969 164.070312 60.464844 C 163.621094 60.484375 163.164062 60.496094 162.699219 60.496094 C 155.214844 60.472656 145.519531 57.800781 133.191406 48.203125 C 129.933594 45.65625 125.226562 46.234375 122.679688 49.492188 C 120.132812 52.75 120.710938 57.457031 123.972656 60.003906 Z M 123.972656 60.003906 "/>
<path style=" stroke:none;fill-rule:nonzero;fill:rgb(100%,100%,100%);fill-opacity:1;" d="M 198.34375 47.003906 C 199.175781 47.957031 200.085938 48.832031 201.0625 49.625 C 203.171875 51.335938 205.585938 52.652344 208.183594 53.492188 C 211.300781 54.5 214.675781 54.816406 218.09375 54.316406 C 218.695312 54.226562 219.300781 54.117188 219.902344 53.976562 C 219.90625 53.976562 219.90625 53.976562 219.90625 53.976562 C 222.359375 53.40625 224.617188 52.441406 226.636719 51.171875 C 229.691406 49.246094 232.191406 46.613281 233.960938 43.550781 C 233.988281 43.5 234.019531 43.449219 234.050781 43.398438 C 236.675781 38.765625 237.636719 33.175781 236.335938 27.578125 C 233.582031 15.753906 221.761719 8.398438 209.9375 11.152344 C 198.113281 13.90625 190.757812 25.722656 193.511719 37.550781 C 193.589844 37.894531 193.679688 38.234375 193.777344 38.574219 C 193.949219 39.175781 194.148438 39.765625 194.363281 40.34375 C 195.304688 42.835938 196.664062 45.078125 198.34375 47.003906 Z M 198.34375 47.003906 "/>
<path style=" stroke:none;fill-rule:nonzero;fill:rgb(100%,100%,100%);fill-opacity:1;" d="M 306.042969 43.550781 C 307.808594 46.613281 310.308594 49.246094 313.367188 51.171875 C 315.382812 52.441406 317.640625 53.40625 320.09375 53.976562 C 320.09375 53.976562 320.097656 53.976562 320.097656 53.976562 C 320.703125 54.117188 321.304688 54.226562 321.910156 54.316406 C 325.324219 54.816406 328.703125 54.5 331.820312 53.492188 C 334.414062 52.65625 336.828125 51.335938 338.941406 49.625 C 339.917969 48.832031 340.828125 47.957031 341.660156 47.003906 C 343.339844 45.074219 344.699219 42.832031 345.636719 40.34375 C 345.855469 39.765625 346.050781 39.175781 346.222656 38.574219 C 346.320312 38.234375 346.410156 37.894531 346.488281 37.550781 C 349.242188 25.722656 341.890625 13.90625 330.066406 11.152344 C 318.238281 8.398438 306.417969 15.753906 303.667969 27.578125 C 302.363281 33.175781 303.328125 38.765625 305.953125 43.398438 C 305.980469 43.449219 306.011719 43.5 306.042969 43.550781 Z M 306.042969 43.550781 "/>
<path style=" stroke:none;fill-rule:nonzero;fill:rgb(100%,100%,100%);fill-opacity:1;" d="M 265.019531 45.554688 C 272.292969 47.25 279.5625 45.113281 284.71875 40.472656 C 284.933594 40.277344 285.144531 40.082031 285.351562 39.878906 C 288.261719 37.046875 290.425781 33.378906 291.417969 29.128906 C 294.171875 17.300781 286.816406 5.484375 274.992188 2.730469 C 263.164062 -0.0234375 251.347656 7.332031 248.59375 19.15625 C 246.78125 26.921875 249.335938 34.683594 254.648438 39.878906 C 254.855469 40.082031 255.066406 40.277344 255.28125 40.472656 C 257.957031 42.886719 261.261719 44.679688 265.019531 45.554688 Z M 265.019531 45.554688 "/>
</g>
</svg>
