<?xml version="1.0" encoding="UTF-8"?>
<svg xmlns="http://www.w3.org/2000/svg" xmlns:xlink="http://www.w3.org/1999/xlink" width="810pt" height="809.999993pt" viewBox="0 0 810 809.999993" version="1.2">
<defs>
<clipPath id="clip1">
  <path d="M 423 98.34375 L 810 98.34375 L 810 595 L 423 595 Z M 423 98.34375 "/>
</clipPath>
<clipPath id="clip2">
  <path d="M 0 203 L 499 203 L 499 711.84375 L 0 711.84375 Z M 0 203 "/>
</clipPath>
</defs>
<g id="surface1">
<g clip-path="url(#clip1)" clip-rule="nonzero">
<path style=" stroke:none;fill-rule:nonzero;fill:rgb(100%,100%,100%);fill-opacity:1;" d="M 809.488281 552.75 L 809.488281 233.308594 C 809.488281 219.859375 800.914062 209.566406 787.421875 208.34375 C 787.121094 208.285156 786.792969 208.246094 786.460938 208.246094 L 681.816406 208.246094 C 694.023438 185.144531 693.640625 157.5625 680.359375 134.628906 C 667.246094 111.972656 642.203125 98.769531 616.417969 98.347656 C 590.265625 97.921875 566.066406 112.734375 552.472656 134.628906 C 538.628906 156.945312 538.992188 185.441406 551.003906 208.246094 L 446.867188 208.246094 C 433.617188 208.246094 424.085938 218.390625 423.34375 231.277344 C 422.929688 238.390625 423.34375 245.636719 423.34375 252.75 L 423.34375 312.226562 C 423.34375 314.492188 425.226562 316.324219 427.472656 316.359375 C 479.359375 316.953125 521.234375 358.839844 521.847656 410.742188 C 522.441406 462.644531 478.453125 504.53125 427.472656 505.128906 C 425.226562 505.160156 423.34375 506.996094 423.34375 509.257812 L 423.34375 568.894531 C 423.34375 581.417969 430.132812 591.960938 443.066406 594.226562 C 445.875 594.71875 448.898438 594.507812 451.738281 594.507812 L 773.691406 594.507812 C 786.710938 594.507812 799.460938 595.300781 806.996094 581.863281 C 811.371094 574.097656 809.488281 561.277344 809.488281 552.75 "/>
</g>
<g clip-path="url(#clip2)" clip-rule="nonzero">
<path style=" stroke:none;fill-rule:nonzero;fill:rgb(100%,100%,100%);fill-opacity:1;" d="M 480.417969 421.996094 C 473.082031 462.875 426.996094 484.058594 390.554688 465.601562 C 385.070312 462.828125 378.132812 466.179688 378.132812 472.742188 L 378.132812 564.167969 C 378.132812 571.882812 378.199219 582.113281 367.378906 582.113281 L 253.265625 582.113281 C 247.515625 582.113281 242.28125 589.332031 246.128906 594.539062 C 261.144531 614.863281 263.839844 640.886719 251.796875 663.277344 C 241.074219 683.207031 219.75 694.9375 197.449219 695.300781 C 175.660156 695.664062 155.539062 683.421875 144.207031 665.179688 C 130.445312 643.003906 133.632812 615.046875 148.777344 594.539062 C 152.625 589.332031 147.398438 582.113281 141.648438 582.113281 L 27.90625 582.113281 C 14.265625 582.113281 16.773438 566.382812 16.773438 557.308594 L 16.773438 235.789062 C 16.773438 232.984375 16.457031 229.753906 17.566406 227.136719 C 21.246094 218.4375 33.289062 220.640625 40.828125 220.640625 L 91.066406 220.640625 C 95.375 275.429688 142.085938 318.523438 197.449219 319.167969 C 252.785156 319.796875 299.46875 274.703125 303.832031 220.640625 L 351.339844 220.640625 C 357.1875 220.640625 366.007812 219.058594 371.640625 221.433594 C 379.15625 224.613281 378.132812 232.625 378.132812 239.207031 L 378.132812 348.382812 C 378.132812 354.941406 385.070312 358.296875 390.554688 355.519531 C 399.671875 350.910156 409.15625 348.664062 419.347656 348.449219 C 457.769531 349.078125 487.273438 383.824219 480.417969 421.996094 Z M 420.503906 331.972656 C 420.140625 331.941406 419.757812 331.925781 419.347656 331.925781 C 418.949219 331.925781 418.570312 331.957031 418.222656 331.992188 C 410.046875 332.253906 402.214844 333.625 394.652344 336.105469 L 394.652344 234.734375 C 394.652344 223.683594 391.035156 214.808594 381.800781 208.1875 C 374.414062 202.894531 363.976562 204.113281 355.367188 204.113281 L 295.949219 204.113281 C 291.441406 204.113281 287.691406 207.871094 287.691406 212.378906 C 287.691406 262.027344 246.660156 302.066406 197.449219 302.644531 C 148.242188 303.207031 107.222656 261.167969 107.222656 212.378906 C 107.222656 207.871094 103.464844 204.113281 98.964844 204.113281 L 37.082031 204.113281 C 26.265625 204.113281 16.902344 204.269531 8.207031 212.074219 C 2.148438 217.507812 0.257812 225.820312 0.257812 233.605469 C 0.257812 268.257812 0.257812 302.910156 0.257812 337.558594 L 0.257812 552.75 C 0.257812 563.292969 -0.878906 574.050781 3.300781 583.964844 C 8.5625 596.40625 22.050781 598.636719 33.855469 598.636719 L 126.988281 598.636719 C 115.847656 621.570312 116.507812 648.671875 128.859375 671.621094 C 142.296875 696.605469 169.546875 711.378906 197.449219 711.824219 C 225.066406 712.273438 250.621094 696.625 264.960938 673.507812 C 278.96875 650.933594 279.234375 622.117188 267.902344 598.636719 L 367.015625 598.636719 C 381.964844 598.636719 394.652344 586.589844 394.652344 571.4375 L 394.652344 484.917969 C 438.195312 498.601562 486.378906 473.238281 496.355469 426.390625 C 506.617188 378.191406 468.574219 333.460938 420.503906 331.972656 "/>
</g>
</g>
</svg>
