<?xml version="1.0" encoding="UTF-8"?>
<svg xmlns="http://www.w3.org/2000/svg" xmlns:xlink="http://www.w3.org/1999/xlink" width="540pt" height="225pt" viewBox="0 0 540 225" version="1.2">
<defs>
<clipPath id="clip1">
  <path d="M 276 0 L 418.421875 0 L 418.421875 182 L 276 182 Z M 276 0 "/>
</clipPath>
<clipPath id="clip2">
  <path d="M 121.421875 38 L 305 38 L 305 225 L 121.421875 225 Z M 121.421875 38 "/>
</clipPath>
</defs>
<g id="surface1">
<g clip-path="url(#clip1)" clip-rule="nonzero">
<path style=" stroke:none;fill-rule:nonzero;fill:rgb(100%,100%,100%);fill-opacity:1;" d="M 418.238281 166.652344 L 418.238281 49.5 C 418.238281 44.566406 415.09375 40.792969 410.144531 40.34375 C 410.035156 40.320312 409.914062 40.308594 409.792969 40.308594 L 371.421875 40.308594 C 375.898438 31.835938 375.757812 21.71875 370.890625 13.308594 C 366.082031 5 356.898438 0.15625 347.441406 0.00390625 C 337.855469 -0.152344 328.980469 5.277344 323.996094 13.308594 C 318.921875 21.492188 319.054688 31.945312 323.457031 40.308594 L 285.273438 40.308594 C 280.417969 40.308594 276.921875 44.027344 276.648438 48.753906 C 276.496094 51.363281 276.648438 54.019531 276.648438 56.628906 L 276.648438 78.441406 C 276.648438 79.273438 277.339844 79.945312 278.164062 79.957031 C 297.1875 80.175781 312.542969 95.539062 312.765625 114.574219 C 312.984375 133.605469 296.855469 148.96875 278.164062 149.1875 C 277.339844 149.199219 276.648438 149.871094 276.648438 150.703125 L 276.648438 172.574219 C 276.648438 177.167969 279.136719 181.035156 283.878906 181.863281 C 284.910156 182.046875 286.019531 181.96875 287.0625 181.96875 L 405.113281 181.96875 C 409.886719 181.96875 414.5625 182.257812 417.324219 177.332031 C 418.929688 174.484375 418.238281 169.78125 418.238281 166.652344 "/>
</g>
<g clip-path="url(#clip2)" clip-rule="nonzero">
<path style=" stroke:none;fill-rule:nonzero;fill:rgb(100%,100%,100%);fill-opacity:1;" d="M 297.574219 118.699219 C 294.886719 133.691406 277.988281 141.460938 264.625 134.691406 C 262.613281 133.675781 260.070312 134.902344 260.070312 137.308594 L 260.070312 170.839844 C 260.070312 173.671875 260.09375 177.421875 256.128906 177.421875 L 214.285156 177.421875 C 212.179688 177.421875 210.257812 180.070312 211.667969 181.980469 C 217.175781 189.433594 218.164062 198.976562 213.746094 207.1875 C 209.816406 214.496094 201.996094 218.800781 193.820312 218.933594 C 185.828125 219.066406 178.453125 214.578125 174.296875 207.886719 C 169.25 199.753906 170.417969 189.5 175.972656 181.980469 C 177.382812 180.070312 175.464844 177.421875 173.359375 177.421875 L 131.652344 177.421875 C 126.652344 177.421875 127.570312 171.652344 127.570312 168.324219 L 127.570312 50.40625 C 127.570312 49.378906 127.457031 48.195312 127.863281 47.234375 C 129.210938 44.042969 133.625 44.851562 136.390625 44.851562 L 154.8125 44.851562 C 156.390625 64.945312 173.519531 80.75 193.820312 80.988281 C 214.109375 81.21875 231.226562 64.679688 232.828125 44.851562 L 250.246094 44.851562 C 252.390625 44.851562 255.625 44.273438 257.691406 45.144531 C 260.445312 46.308594 260.070312 49.25 260.070312 51.664062 L 260.070312 91.703125 C 260.070312 94.109375 262.613281 95.335938 264.625 94.320312 C 267.96875 92.628906 271.445312 91.804688 275.183594 91.726562 C 289.273438 91.957031 300.089844 104.699219 297.574219 118.699219 Z M 275.605469 85.683594 C 275.472656 85.671875 275.335938 85.664062 275.183594 85.664062 C 275.039062 85.664062 274.898438 85.679688 274.769531 85.691406 C 271.773438 85.785156 268.902344 86.289062 266.128906 87.199219 L 266.128906 50.023438 C 266.128906 45.96875 264.800781 42.714844 261.414062 40.285156 C 258.707031 38.34375 254.878906 38.792969 251.722656 38.792969 L 229.9375 38.792969 C 228.285156 38.792969 226.910156 40.167969 226.910156 41.820312 C 226.910156 60.03125 211.863281 74.714844 193.820312 74.925781 C 175.777344 75.132812 160.734375 59.714844 160.734375 41.820312 C 160.734375 40.167969 159.359375 38.792969 157.707031 38.792969 L 135.015625 38.792969 C 131.050781 38.792969 127.617188 38.847656 124.429688 41.710938 C 122.207031 43.703125 121.515625 46.753906 121.515625 49.609375 C 121.515625 62.316406 121.515625 75.023438 121.515625 87.730469 L 121.515625 166.652344 C 121.515625 170.519531 121.097656 174.464844 122.632812 178.101562 C 124.558594 182.664062 129.507812 183.480469 133.832031 183.480469 L 167.984375 183.480469 C 163.898438 191.894531 164.140625 201.832031 168.667969 210.25 C 173.597656 219.414062 183.589844 224.832031 193.820312 224.992188 C 203.945312 225.15625 213.316406 219.417969 218.574219 210.941406 C 223.710938 202.664062 223.808594 192.09375 219.652344 183.480469 L 255.996094 183.480469 C 261.476562 183.480469 266.128906 179.0625 266.128906 173.507812 L 266.128906 141.777344 C 282.09375 146.792969 299.761719 137.492188 303.421875 120.3125 C 307.183594 102.632812 293.234375 86.230469 275.605469 85.683594 "/>
</g>
</g>
</svg>
